<svg id="Layer_1" data-name="Layer 1" xmlns="http://www.w3.org/2000/svg" viewBox="0 0 525.32 687.1"><defs><style>.cls-1{fill:#fff;}.cls-2{fill:#010101;}.cls-3{fill:#e4292d;}.cls-4{fill:#69b131;}.cls-5{fill:#1d1d1b;}</style></defs><polygon class="cls-1" points="406.63 314.05 406.63 410.63 220.24 518 220.24 420.47 358.29 341.66 406.63 314.05"/><polygon class="cls-1" points="398.06 299.45 335.97 334.89 211.78 405.87 127.26 357.95 216.01 306.86 313.43 250.79 398.06 299.45"/><path class="cls-2" d="M525.32,124.91V241a8.38,8.38,0,0,1-4.34,7.29l-97.43,56.18V415.6a8.38,8.38,0,0,1-4.23,7.3L216,540a5.64,5.64,0,0,1-1.48.53c-.21.11-.32.21-.53.32a9.93,9.93,0,0,1-4.34,0,4.93,4.93,0,0,0-.74-.32c-.42-.21-.95-.31-1.38-.53L4.23,422.9A8.4,8.4,0,0,1,0,415.6V67.37a7.81,7.81,0,0,1,.32-2.23,5,5,0,0,0,.31-.74,7.15,7.15,0,0,1,.53-1.27c.11-.31.43-.52.53-.74a6.13,6.13,0,0,0,.74-1,6.47,6.47,0,0,0,.85-.64,4.73,4.73,0,0,1,1-.63L105.89,1.46a8.61,8.61,0,0,1,8.46,0L216,60.07a7.82,7.82,0,0,1,1,.63,5.54,5.54,0,0,1,.85.64,7.48,7.48,0,0,1,.74,1,5.39,5.39,0,0,1,.63.74c.21.43.32.85.53,1.27a4.93,4.93,0,0,0,.32.74,16.82,16.82,0,0,1,.21,2.23V284.86L305,236.09V124.91a8.11,8.11,0,0,1,.32-2.22c.1-.21.21-.53.32-.74a6.18,6.18,0,0,1,.52-1.27,8.11,8.11,0,0,0,.53-.74,9.83,9.83,0,0,1,.85-1.06c.21-.21.53-.42.74-.63s.63-.53.95-.74L410.86,59a8.61,8.61,0,0,1,8.46,0L521,117.51a7.86,7.86,0,0,1,.95.74,5.69,5.69,0,0,1,.85.63,3.81,3.81,0,0,1,.74,1.06,4.41,4.41,0,0,1,.63.74c.21.42.32.85.53,1.27.11.21.21.53.32.74A8.11,8.11,0,0,1,525.32,124.91Zm-17,111.18V139.51L472.74,160l-49.19,28.25v96.58Zm-93.2-62.41,84.73-48.77L415.09,76.15l-84.63,48.76Zm-8.46,237V314.05l-48.34,27.61-138,78.81V518Zm0-125.77V188.28L357.55,160,321.9,139.51v96.58l49.19,28.24Zm-70.66,50,62.09-35.44-84.63-48.66L216,306.86,127.26,358l84.52,47.92ZM203.31,518V420.47L106,365.36h-.1c-.32-.22-.64-.53-1-.74s-.53-.32-.74-.64a2.93,2.93,0,0,1-.75-.85c-.21-.31-.42-.52-.63-.84a4.25,4.25,0,0,1-.42-1.06,4,4,0,0,1-.43-1c-.1-.42-.1-.85-.21-1.27s-.1-.64-.1-.95V130.84L52.57,102.49,16.92,82.07V410.63Zm0-223.41V82l-35.54,20.53-49.19,28.35V343.35l35.65-20.52ZM110.12,116.13l84.73-48.76L110.12,18.6,25.49,67.37Z"/><polygon class="cls-3" points="508.29 139.51 508.29 236.09 423.55 284.86 423.55 188.28 472.74 160.03 508.29 139.51"/><polygon class="cls-3" points="499.82 124.91 415.09 173.68 330.46 124.91 415.09 76.15 499.82 124.91"/><polygon class="cls-3" points="406.63 188.28 406.63 284.86 371.09 264.33 321.9 236.09 321.9 139.51 357.55 160.03 406.63 188.28"/><polygon class="cls-4" points="203.31 81.96 203.31 294.59 154.23 322.83 118.58 343.35 118.58 130.84 167.77 102.49 203.31 81.96"/><polygon class="cls-4" points="194.85 67.37 110.12 116.13 25.49 67.37 110.12 18.6 194.85 67.37"/><path class="cls-4" d="M105.89,365.36h.1l97.32,55.11V518L16.92,410.63V82.07l35.65,20.42,49.09,28.35V358.06c0,.31.1.63.1.95s.11.85.21,1.27a4,4,0,0,0,.43,1,4.25,4.25,0,0,0,.42,1.06c.21.32.42.53.63.84a2.93,2.93,0,0,0,.75.85c.21.32.52.42.74.64S105.57,365.14,105.89,365.36Z"/><path class="cls-5" d="M0,590.19H14.26v74.9H0Z"/><path class="cls-5" d="M65.69,658.24A21.26,21.26,0,0,1,49,666.44c-13.7,0-24-10.33-24-28.41,0-17.74,10.22-28.52,24-28.52a20.85,20.85,0,0,1,16.73,8.31v-7H80.07v54.24H65.69Zm0-29.76a15.68,15.68,0,0,0-12.35-6.17c-8.09,0-13.7,6.29-13.7,15.72s5.61,15.72,13.7,15.72a15.66,15.66,0,0,0,12.35-6.18Z"/><path class="cls-5" d="M94.22,610.85h14.26v7.42c3.82-4.83,10.55-8.65,17.29-8.65v13.92a19.33,19.33,0,0,0-3.93-.33c-4.72,0-11,2.58-13.36,6.06v35.82H94.22Z"/><path class="cls-5" d="M171.92,658.24a21.25,21.25,0,0,1-16.73,8.2c-13.7,0-24-10.33-24-28.41,0-17.74,10.22-28.52,24-28.52a20.85,20.85,0,0,1,16.73,8.31v-7H186.3v54.24H171.92Zm0-29.76a15.68,15.68,0,0,0-12.35-6.17c-8.08,0-13.7,6.29-13.7,15.72s5.62,15.72,13.7,15.72a15.66,15.66,0,0,0,12.35-6.18Z"/><path class="cls-5" d="M192.7,610.85H208l14.15,37.74,14.15-37.74h15.38l-21.78,54.24H214.48Z"/><path class="cls-5" d="M282.65,609.51c16.17,0,27.17,12.12,27.17,29.87v3.14H269.51c.9,6.85,6.4,12.58,15.61,12.58,5.05,0,11-2,14.48-5.39l6.29,9.21c-5.5,5.05-13.92,7.52-22.34,7.52-16.51,0-29-11.12-29-28.52C254.57,622.2,266.14,609.51,282.65,609.51Zm-13.37,23.35H296c-.34-5.16-3.93-12-13.36-12C273.78,620.85,270,627.47,269.28,632.86Z"/><path class="cls-5" d="M320.15,590.19h14.26v74.9H320.15Z"/><path class="cls-5" d="M389.22,657a22.86,22.86,0,0,1-18.31,9.43c-14.15,0-24.14-10.78-24.14-28.41,0-17.29,9.88-28.52,24.14-28.52a22.69,22.69,0,0,1,18.31,9.54V590.19h8.42v74.9h-8.42Zm0-31.22A20.38,20.38,0,0,0,372.93,617c-10.89,0-17.4,9-17.4,21s6.51,20.89,17.4,20.89c6.74,0,13.25-3.82,16.29-8.54Z"/><path class="cls-5" d="M453.79,657a22.86,22.86,0,0,1-18.31,9.43c-14.15,0-24.14-10.78-24.14-28.41,0-17.29,9.88-28.52,24.14-28.52a22.69,22.69,0,0,1,18.31,9.54v-8.2h8.42v54.24h-8.42Zm0-31.22A20.38,20.38,0,0,0,437.5,617c-10.89,0-17.4,9-17.4,21s6.51,20.89,17.4,20.89c6.74,0,13.25-3.82,16.29-8.54Z"/><path class="cls-5" d="M482,679.58c3.71,0,6.18-1.24,8.09-5.73l3.59-8.2L471,610.85h9.09l18.08,44.47,18-44.47h9.21L498.14,676.1c-3.25,7.86-8.76,10.89-15.94,11a27.29,27.29,0,0,1-6.18-.78l1.35-7.64A12.9,12.9,0,0,0,482,679.58Z"/></svg>